<svg id="Layer_1" data-name="Layer 1" xmlns="http://www.w3.org/2000/svg" viewBox="0 0 20 21"><defs><style>.cls-1{fill:#718096;}</style></defs><path class="cls-1" d="M233.43,268.14a1,1,0,0,1-1-1,1,1,0,0,1,.28-.71,1,1,0,0,1,.72-.29h3v-1h-3a1,1,0,0,1-1-1,1,1,0,0,1,.28-.71,1,1,0,0,1,.72-.29h3v-1h-3a1,1,0,0,1-1-1,1,1,0,0,1,.28-.71,1,1,0,0,1,.72-.29h3v-1h-3a1,1,0,0,1-1-1,1,1,0,0,1,.28-.71,1,1,0,0,1,.72-.29h3v-1h-3a1,1,0,0,1-1-1,1,1,0,0,1,.28-.71,1,1,0,0,1,.72-.29h3v-1h-3a1,1,0,0,1-1-1,1,1,0,0,1,.28-.71,1,1,0,0,1,.72-.29h4a2,2,0,0,1,2,2v13a2,2,0,0,1-.59,1.42,1.92,1.92,0,0,1-1.41.58Zm-8-8a3.41,3.41,0,0,0,2.82-1.62,7,7,0,0,0,0-7.75,3.26,3.26,0,0,0-5.65,0,7,7,0,0,0,0,7.75A3.44,3.44,0,0,0,225.43,260.14Zm0,8a2.57,2.57,0,0,1-2.58-3l.4-3.53a6.37,6.37,0,0,1-2.76-2.71,8.58,8.58,0,0,1-1.06-4.29,8.22,8.22,0,0,1,1.75-5.31,5.22,5.22,0,0,1,8.5,0,8.28,8.28,0,0,1,1.75,5.31,8.59,8.59,0,0,1-1.07,4.29,6.27,6.27,0,0,1-2.76,2.71l.4,3.53a2.57,2.57,0,0,1-2.57,3Z" transform="translate(-219.43 -247.14)"/></svg>