<svg id="Layer_1" data-name="Layer 1" xmlns="http://www.w3.org/2000/svg" viewBox="0 0 16 20"><defs><style>.cls-1{fill:#718096;}</style></defs><path class="cls-1" d="M194.29,256.14h6a1,1,0,0,0,.71-.28,1,1,0,0,0,.29-.72,1,1,0,0,0-1-1h-6a1,1,0,0,0-.72.29,1,1,0,0,0-.28.71,1,1,0,0,0,.28.72A1,1,0,0,0,194.29,256.14Zm0-4h6a1,1,0,0,0,.71-.28,1,1,0,0,0,.29-.72,1,1,0,0,0-1-1h-6a1,1,0,0,0-.72.29,1,1,0,0,0-.28.71,1,1,0,0,0,.28.72A1,1,0,0,0,194.29,252.14Zm-3,8a2,2,0,0,1-2-2v-16a1.92,1.92,0,0,1,.58-1.41,2,2,0,0,1,1.42-.59h7.17a1.94,1.94,0,0,1,.76.15,1.85,1.85,0,0,1,.64.43l4.85,4.85a1.9,1.9,0,0,1,.43.64,1.94,1.94,0,0,1,.15.76v11.17a2,2,0,0,1-.59,1.42,1.92,1.92,0,0,1-1.41.58Zm7-14a1,1,0,0,0,.28.72,1,1,0,0,0,.72.28h4l-5-5Z" transform="translate(-189.29 -240.14)"/></svg>