<svg id="Layer_1" data-name="Layer 1" xmlns="http://www.w3.org/2000/svg" viewBox="0 0 20 20"><defs><style>.cls-1{fill:#718096;}</style></defs><path class="cls-1" d="M198.79,260.14a6.49,6.49,0,0,1-6.5-6.5v-.57a5.94,5.94,0,0,1-5-5.93v-5a1,1,0,0,1,.28-.71,1,1,0,0,1,.72-.29h2a1,1,0,0,1,.28-.71,1,1,0,0,1,1.72.71v2a1,1,0,0,1-.29.72,1.05,1.05,0,0,1-1.43,0,1,1,0,0,1-.28-.72h-1v4a4,4,0,0,0,8,0v-4h-1a1,1,0,0,1-.29.72,1.05,1.05,0,0,1-1.43,0,1,1,0,0,1-.28-.72v-2a1,1,0,0,1,.28-.71,1,1,0,0,1,1.72.71h2a1,1,0,0,1,1,1v5a6,6,0,0,1-5,5.93v.57a4.5,4.5,0,1,0,9,0V252a3.06,3.06,0,0,1-1.44-1.09,2.83,2.83,0,0,1-.56-1.74,3,3,0,0,1,3-3,2.86,2.86,0,0,1,2.12.88,2.9,2.9,0,0,1,.88,2.12,2.84,2.84,0,0,1-.57,1.74,3.08,3.08,0,0,1-1.43,1.09v1.67a6.49,6.49,0,0,1-6.5,6.5Z" transform="translate(-187.29 -240.14)"/></svg>