<svg id="Layer_1" data-name="Layer 1" xmlns="http://www.w3.org/2000/svg" viewBox="0 0 304.18 104.84"><defs><style>.cls-1{fill:#e32229;}.cls-2{fill:#0bb783;}</style></defs><path class="cls-1" d="M216.57,145.14c0-5.27,0-10.54,0-15.81,0-1-.34-1.37-1.35-1.36-4,0-8,0-12,0-1.36,0-1.42.06-1.42,1.46v15.7c0,1.52-.05,1.56-1.57,1.56H184.64c-1.36,0-1.43.07-1.43,1.46,0,4,0,8,0,12,0,.95.31,1.32,1.28,1.31,2.69,0,5.39,0,8.1,0h7.76c1.44,0,1.51.06,1.51,1.5,0,5.19,0,10.4,0,15.59,0,1.07.33,1.44,1.4,1.42,4-.05,7.9,0,11.86,0,1.44,0,1.49-.06,1.49-1.53V163.1c0-1.57,0-1.6,1.63-1.6h15.41c1.57,0,1.58,0,1.6-1.65V148.16c0-1.38-.07-1.45-1.45-1.45H218.14C216.62,146.71,216.57,146.66,216.57,145.14Z" transform="translate(-91.39 -107.64)"/><path class="cls-2" d="M291.35,200.13c2.41-4.52,3.08-9.43,3.08-14.45,0-5.79-.06-11.58-.12-17.38-.12-12.92-.08-25.84-.12-38.77,0-1.45-.09-1.54-1.48-1.54h-9.87c-1.33,0-1.42.1-1.42,1.48v5.12a2.49,2.49,0,0,1-.46-.17c-.22-.29-.43-.6-.63-.9a14.46,14.46,0,0,0-13.24-7.1c-5.9.13-10.54,2.81-14.18,7.37-.9,1.15-.95,1.13-1.64-.2a46.67,46.67,0,0,0-10.79-14.14c-10.39-9-22.5-13-36.12-11.52-14.24,1.51-25.55,8.3-33.77,20.16-.28.4-.45,1.2-1,1s-.23-.93-.27-1.41,0-1.27-.84-1.28c-3.93,0-7.77.25-11,3a18.94,18.94,0,0,0-3.69,4.4c-.14.22-.25.56-.53.51s-.3-.47-.3-.74c0-1.34-.06-2.68,0-4,0-1-.38-1.37-1.38-1.35-3.06,0-6.13,0-9.2,0-1.07,0-1.43.38-1.42,1.43q.15,27.08.25,54.15c0,1.09.42,1.39,1.45,1.37,3.21,0,6.43,0,9.64,0,1.71,0,1.72,0,1.71-1.75q-.08-14.2-.16-28.41a18.68,18.68,0,0,1,1-6.46,9.91,9.91,0,0,1,8.08-6.78c1.21-.22,1.37-.06,1.07,1.11a44.9,44.9,0,0,0-1.31,13.36,45.44,45.44,0,0,0,5.3,19.4,46.34,46.34,0,0,0,13.84,15.85A47,47,0,0,0,239,189.73,47.14,47.14,0,0,0,249.84,177c.71-1.21.71-1.2,1.54,0a20.5,20.5,0,0,0,4.76,4.94,19.32,19.32,0,0,0,14.75,3.36c4.46-.67,8.07-2.79,10.17-7,.1-.19.14-.46.5-.4a1.67,1.67,0,0,1,.08.4c0,3.26.14,6.54,0,9.8a11.35,11.35,0,0,1-4.8,9c-3.9,2.85-10.2,3.2-14.05.68a9.79,9.79,0,0,1-4.47-7.92c-.06-.82-.23-1.44-1.27-1.43-3.25,0-6.5,0-9.75,0-.63,0-1,.21-.94.91.23,8.1,3.31,14.72,10.13,19.28a24.1,24.1,0,0,0,16.11,3.73C280.89,211.52,287.34,207.68,291.35,200.13ZM209.26,185.9c-17.61.32-32.46-14.78-32.39-32.1s14.93-32.05,32.62-32c17.48.08,32.4,14.9,32.28,32.31C241.66,171.09,227,186.27,209.26,185.9Zm71-19.12a10.82,10.82,0,0,1-5.89,6.2,9.43,9.43,0,0,1-11.55-3.57,17,17,0,0,1-3-7,34.43,34.43,0,0,1,.38-14,17.36,17.36,0,0,1,.87-2.64c1.84-4.37,5-6.37,9.84-6.3a9.58,9.58,0,0,1,9.07,6.63,31.73,31.73,0,0,1,1.83,11.77A20.64,20.64,0,0,1,280.3,166.78Z" transform="translate(-91.39 -107.64)"/><path class="cls-2" d="M135.43,147.92a35,35,0,0,0-1-8.16c-1.62-6.67-5.66-11-12.39-12.53a33.33,33.33,0,0,0-16.57.27A15.45,15.45,0,0,0,94,139a37,37,0,0,0-1,6c-.1,1,.23,1.32,1.2,1.31,2.77,0,5.55,0,8.32,0s2.17.05,2.78-2.12c.77-2.75,2.08-5.13,5-6a12.4,12.4,0,0,1,8.26.34,6.44,6.44,0,0,1,2.52,1.76c2.29,2.57,1.32,7.31-1.79,8.72a17.82,17.82,0,0,1-4.36,1.24A86.88,86.88,0,0,0,102.51,153c-4.87,1.58-8.42,4.67-10,9.64a24.42,24.42,0,0,0-.42,13.32c1.16,4.6,3.84,8.21,8.5,9.5,7.87,2.18,15.33,1.63,21.43-4.73.17-.18.33-.48.62-.4s.31.47.35.76c.15.95.31,1.9.43,2.86s.6,1.22,1.51,1.21c3,0,6,0,9,0,1.7,0,1.7,0,1.7-1.76V165.09h-.2C135.44,159.37,135.46,153.65,135.43,147.92Zm-15.09,22.72a11.46,11.46,0,0,1-10.2,5.19c-3.57-.14-5.67-2.26-5.8-5.84a17.61,17.61,0,0,1,0-1.78,6.67,6.67,0,0,1,3.65-5.83,27.26,27.26,0,0,1,6.78-2.35c1.51-.37,3-.78,4.49-1.19a7.66,7.66,0,0,0,2.37-1.19c.25-.18.49-.6.83-.38s.17.62.17.94c0,1,0,1.93,0,2.89C122.8,164.49,122.39,167.78,120.34,170.64Z" transform="translate(-91.39 -107.64)"/><path class="cls-2" d="M395.57,183.6c0-6.17.08-12.32-.14-18.23v-8.5c0-2.79,0-5.57,0-8.36a41.12,41.12,0,0,0-.75-7.75c-1.4-7.52-6-12.19-13.46-13.72a31.11,31.11,0,0,0-4.5-.57,31.85,31.85,0,0,0-12,1.29,15.33,15.33,0,0,0-10.54,10.71A33.89,33.89,0,0,0,353,145c-.09,1,.17,1.35,1.18,1.33,3,0,6.05-.06,9.08,0,1.2,0,1.67-.36,1.91-1.55.5-2.5,1.49-4.89,3.91-6.06a10.92,10.92,0,0,1,10.91.57c2,1.21,2.52,3.17,2.3,5.42a5,5,0,0,1-3.53,4.52,29.57,29.57,0,0,1-5.06,1.21c-4.36.77-8.75,1.44-12.89,3.16a13.28,13.28,0,0,0-7.38,6.89,22.55,22.55,0,0,0-.55,17.56,11.84,11.84,0,0,0,9,7.73c7.54,1.56,14.6.89,20.24-5.18.17-.18.34-.47.64-.32s.25.43.29.68c.15,1,.31,2,.44,3s.58,1.16,1.44,1.15c3.07,0,6.14,0,9.2,0C395.52,185.1,395.58,185.05,395.57,183.6Zm-13.43-16.92a12,12,0,0,1-12,9.15c-3.59-.13-5.67-2.2-5.85-5.79-.22-4.45,1.13-6.66,5.21-8.42A34,34,0,0,1,375,160c2.39-.58,4.87-.93,6.89-2.55.58-.47.68-.06.69.42,0,1.12,0,2.23,0,3.34A20.56,20.56,0,0,1,382.14,166.68Z" transform="translate(-91.39 -107.64)"/><path class="cls-2" d="M347,129.82c0-1.84,0-1.84-1.87-1.84-3.18,0-6.36,0-9.53,0-1.08,0-1.45.38-1.41,1.44.06,1.37,0,2.75,0,4.12,0,.31.15.78-.2.91s-.46-.36-.67-.6a1.92,1.92,0,0,1-.18-.28,15.09,15.09,0,0,0-16.83-6.74c-5.24,1.2-9.06,4.4-12,8.77a32,32,0,0,0-5,13.68,47.69,47.69,0,0,0,1.64,21,22.27,22.27,0,0,0,7.45,11.24A19.24,19.24,0,0,0,324,185.19c4.38-.73,7.88-2.89,9.92-7,.08-.16.14-.34.38-.34s.18.31.18.49c0,3.22.13,6.47,0,9.69a11.06,11.06,0,0,1-4.87,9.06A12.72,12.72,0,0,1,317,198.42c-3.75-1.52-5.56-4.6-5.89-8.59-.06-.8-.16-1.47-1.22-1.47q-4.87,0-9.75,0c-.69,0-1,.23-1,1,.29,8.26,3.47,15,10.56,19.48a24.25,24.25,0,0,0,15.53,3.48c8.48-.74,15-4.63,19-12.32a28.69,28.69,0,0,0,3-13.35c0-6.83-.11-13.67-.13-20.5Q347,148,347,129.82Zm-13.91,37A11,11,0,0,1,327.3,173c-4.35,1.81-8.84.39-11.66-3.53a19.59,19.59,0,0,1-3.4-10.55c-.05-.85,0-1.7,0-2.56a28,28,0,0,1,.86-8.05,20.39,20.39,0,0,1,.9-2.63c1.84-4.27,4.94-6.24,9.68-6.19a9.54,9.54,0,0,1,9.1,6.42,27.14,27.14,0,0,1,1.79,8.24C334.88,158.41,334.87,162.71,333.09,166.79Z" transform="translate(-91.39 -107.64)"/></svg>