<svg id="Layer_1" data-name="Layer 1" xmlns="http://www.w3.org/2000/svg" viewBox="0 0 18 20"><defs><style>.cls-1{fill:#718096;}</style></defs><path class="cls-1" d="M201.29,246.14a1.46,1.46,0,0,1-1.07-.43,1.47,1.47,0,0,1-.43-1.07,1.86,1.86,0,0,1,.22-.77,5,5,0,0,1,.63-1,.74.74,0,0,1,.28-.25.87.87,0,0,1,.37-.07.86.86,0,0,1,.36.07.84.84,0,0,1,.29.25,5.45,5.45,0,0,1,.62,1,1.9,1.9,0,0,1,.23.77,1.48,1.48,0,0,1-.44,1.07A1.45,1.45,0,0,1,201.29,246.14Zm2.5,7a2.46,2.46,0,0,1-2.5-2.5,3.83,3.83,0,0,1,.48-1.65,11.49,11.49,0,0,1,1.22-1.87,1,1,0,0,1,.36-.31.88.88,0,0,1,.44-.12.85.85,0,0,1,.43.12,1,1,0,0,1,.37.31,14.74,14.74,0,0,1,1.2,1.87,3.76,3.76,0,0,1,.5,1.65,2.45,2.45,0,0,1-.73,1.78A2.41,2.41,0,0,1,203.79,253.14Zm-9.5,3a1,1,0,0,0,.71-.28,1,1,0,0,0,.29-.72v-1h1a1,1,0,0,0,.71-.28,1,1,0,0,0,.29-.72,1,1,0,0,0-1-1h-1v-1a1,1,0,1,0-2,0v1h-1a1,1,0,0,0-.72.29,1,1,0,0,0-.28.71,1,1,0,0,0,.28.72,1,1,0,0,0,.72.28h1v1a1,1,0,0,0,.28.72A1,1,0,0,0,194.29,256.14Zm-4,4a2,2,0,0,1-2-2v-8a5.77,5.77,0,0,1,1.42-3.9,5.85,5.85,0,0,1,3.58-2v-2.1h-1a1,1,0,0,1-.72-.28,1,1,0,0,1-.28-.72,1,1,0,0,1,.28-.71,1,1,0,0,1,.72-.29h5a4.94,4.94,0,0,1,.87.08,4.84,4.84,0,0,1,.83.22,1,1,0,0,1,.65.72.92.92,0,0,1-.28.91,1.08,1.08,0,0,1-.52.27,1,1,0,0,1-.65-.05,3,3,0,0,0-.43-.11,3.57,3.57,0,0,0-.47,0h-2v2.1a5.85,5.85,0,0,1,3.57,2,5.78,5.78,0,0,1,1.43,3.9v8a2,2,0,0,1-.59,1.42,1.92,1.92,0,0,1-1.41.58Z" transform="translate(-188.29 -240.14)"/></svg>