<svg id="Layer_1" data-name="Layer 1" xmlns="http://www.w3.org/2000/svg" viewBox="0 0 16 19.63"><defs><style>.cls-1{fill:#718096;}</style></defs><path class="cls-1" d="M247.29,232.47a1.92,1.92,0,0,0,1.41-.58,2,2,0,0,0,.59-1.42,2,2,0,0,0-2-2,2,2,0,0,0-1.42.59,1.92,1.92,0,0,0-.58,1.41,2,2,0,0,0,2,2Zm0,9.63a1.1,1.1,0,0,1-.4-.08,1,1,0,0,1-.35-.2,30.67,30.67,0,0,1-5.45-6,9.63,9.63,0,0,1-1.8-5.17,7.71,7.71,0,0,1,2.41-6,8.11,8.11,0,0,1,11.17,0,7.72,7.72,0,0,1,2.42,6,9.63,9.63,0,0,1-1.8,5.17,31,31,0,0,1-5.45,6,1.1,1.1,0,0,1-.35.2A1.19,1.19,0,0,1,247.29,242.1Z" transform="translate(-239.29 -222.47)"/></svg>