<svg id="Layer_1" data-name="Layer 1" xmlns="http://www.w3.org/2000/svg" viewBox="0 0 19 19"><defs><style>.cls-1{fill:#718096;}</style></defs><path class="cls-1" d="M242.3,277.29c.25-.62-.12-1-.67-1.53a3.4,3.4,0,0,1,.38-5.35.72.72,0,0,0,.32-.78,3.51,3.51,0,0,1,4.21-4.06.77.77,0,0,0,.59-.32,3.46,3.46,0,0,1,3.71-1.39,3.34,3.34,0,0,1,2,1.38.65.65,0,0,0,.77.32,3.5,3.5,0,0,1,4.05,4.09.66.66,0,0,0,.32.74,3.44,3.44,0,0,1,0,5.7.71.71,0,0,0-.32.79,3.49,3.49,0,0,1-4.09,4,.61.61,0,0,0-.69.26,3.44,3.44,0,0,1-5.77,0,.58.58,0,0,0-.67-.28A3.49,3.49,0,0,1,242.3,277.29Zm5.51-.77a3.36,3.36,0,0,0,.64-.44c1.48-1.45,2.94-2.93,4.4-4.4a1.48,1.48,0,0,0,.29-.37.88.88,0,0,0-1.22-1.2,1.8,1.8,0,0,0-.37.3q-2.2,2.19-4.4,4.4a1.87,1.87,0,0,0-.32.42A.92.92,0,0,0,247.81,276.52Zm-.2-4.45a1.2,1.2,0,1,0,0-2.4,1.15,1.15,0,0,0-1.21,1.18A1.16,1.16,0,0,0,247.61,272.07Zm4.76,4.75a1.2,1.2,0,1,0,0-2.39,1.2,1.2,0,0,0,0,2.39Z" transform="translate(-240.5 -263.76)"/></svg>