<svg id="Layer_1" data-name="Layer 1" xmlns="http://www.w3.org/2000/svg" viewBox="0 0 20.09 18"><defs><style>.cls-1{fill:#718096;}</style></defs><path class="cls-1" d="M190.29,259.14a2,2,0,0,1-2-2v-7.95a3.39,3.39,0,0,1-.89-1.35,2.7,2.7,0,0,1,0-1.8l1.05-3.4a2.18,2.18,0,0,1,.71-1.07,1.78,1.78,0,0,1,1.19-.43h13.9a1.75,1.75,0,0,1,1.17.42,2.31,2.31,0,0,1,.73,1.08l1.05,3.4a2.64,2.64,0,0,1,0,1.78,4,4,0,0,1-.88,1.37v7.95a2,2,0,0,1-.59,1.42,1.92,1.92,0,0,1-1.41.58Zm9.2-11a1.19,1.19,0,0,0,1-.46,1.38,1.38,0,0,0,.28-1l-.55-3.5h-2v3.7a1.31,1.31,0,0,0,.35.92A1.11,1.11,0,0,0,199.49,248.14Zm-4.5,0a1.24,1.24,0,0,0,.93-.38,1.33,1.33,0,0,0,.37-.92v-3.7h-1.95l-.55,3.5a1.26,1.26,0,0,0,.26,1.05A1.14,1.14,0,0,0,195,248.14Zm-4.45,0a1.1,1.1,0,0,0,.78-.32,1.38,1.38,0,0,0,.42-.83l.55-3.85h-1.95l-1,3.35a1.38,1.38,0,0,0,.16,1.08A1.09,1.09,0,0,0,190.54,248.14Zm13.5,0a1.12,1.12,0,0,0,1.05-.57,1.33,1.33,0,0,0,.15-1.08l-1.05-3.35h-1.9l.55,3.85a1.37,1.37,0,0,0,.41.83A1.12,1.12,0,0,0,204,248.14Zm-13.75,9h14v-7a.45.45,0,0,1-.17,0H204a2.94,2.94,0,0,1-1.19-.22,3.26,3.26,0,0,1-1-.73,3.25,3.25,0,0,1-1,.7,3,3,0,0,1-1.22.25,3.18,3.18,0,0,1-2.3-.95,3.08,3.08,0,0,1-1,.7,2.91,2.91,0,0,1-1.21.25,3.27,3.27,0,0,1-1.32-.25,3.14,3.14,0,0,1-1-.7,3.3,3.3,0,0,1-1,.74,3,3,0,0,1-1.16.21h-.12a.2.2,0,0,1-.13,0Z" transform="translate(-187.24 -241.14)"/></svg>