<svg id="Layer_1" data-name="Layer 1" xmlns="http://www.w3.org/2000/svg" viewBox="0 0 18 18"><defs><style>.cls-1{fill:#718096;}</style></defs><path class="cls-1" d="M263.75,240.7a1,1,0,0,1-.71-.29,1.09,1.09,0,0,1-.36-.71,6.87,6.87,0,0,0-2-4,6.8,6.8,0,0,0-4-2,1.12,1.12,0,0,1-.71-.35,1,1,0,0,1-.29-.72,1,1,0,0,1,.3-.72.8.8,0,0,1,.7-.23,9,9,0,0,1,7.95,7.95.84.84,0,0,1-.24.7A.94.94,0,0,1,263.75,240.7Zm-4.18,0a.85.85,0,0,1-.57-.23,1.41,1.41,0,0,1-.38-.6,3,3,0,0,0-2.05-2.05,1.3,1.3,0,0,1-.59-.37.84.84,0,0,1-.23-.6,1.06,1.06,0,0,1,.35-.82.84.84,0,0,1,.78-.21,4.94,4.94,0,0,1,2.41,1.34,4.88,4.88,0,0,1,1.33,2.41.81.81,0,0,1-.22.78A1.09,1.09,0,0,1,259.57,240.7Zm4.13,9a15.05,15.05,0,0,1-6.18-1.37,18.34,18.34,0,0,1-5.55-3.86,18.7,18.7,0,0,1-3.86-5.55,15,15,0,0,1-1.36-6.17,1,1,0,0,1,1.05-1.05h4a1,1,0,0,1,.62.23.89.89,0,0,1,.33.57l.65,3.5a2.07,2.07,0,0,1,0,.67,1.17,1.17,0,0,1-.28.48l-2.43,2.45a12.55,12.55,0,0,0,1.19,1.78,18.2,18.2,0,0,0,1.52,1.67,16.9,16.9,0,0,0,1.62,1.43,15.8,15.8,0,0,0,1.8,1.22l2.35-2.35a1.37,1.37,0,0,1,.59-.34,1.45,1.45,0,0,1,.71-.06l3.45.7a1,1,0,0,1,.57.36.88.88,0,0,1,.23.59v4.05a1,1,0,0,1-1.05,1Z" transform="translate(-246.75 -231.7)"/></svg>