<svg id="Layer_1" data-name="Layer 1" xmlns="http://www.w3.org/2000/svg" viewBox="0 0 26.66 26.67"><defs><style>.cls-1{fill:#718096;}</style></defs><path class="cls-1" d="M191.92,263.48a2.54,2.54,0,0,1-1.88-.79,2.66,2.66,0,0,1,0-3.76,2.64,2.64,0,0,1,3.77,0,2.67,2.67,0,0,1-1.89,4.55Zm13.34,0a2.68,2.68,0,1,1,1.88-.79A2.56,2.56,0,0,1,205.26,263.48Zm-14.47-21.34,3.2,6.67h9.33l3.67-6.67Zm1.13,14.67a2.46,2.46,0,0,1-2.26-1.32,2.5,2.5,0,0,1-.07-2.61l1.8-3.27-4.8-10.13h-1.37a1.24,1.24,0,0,1-.93-.39,1.33,1.33,0,0,1-.37-1,1.31,1.31,0,0,1,1.34-1.33h2.16a1.35,1.35,0,0,1,.7.2,1.16,1.16,0,0,1,.5.57l.9,1.9h19.67a1.25,1.25,0,0,1,1.23.66,1.45,1.45,0,0,1,0,1.4l-4.73,8.54a2.75,2.75,0,0,1-1,1,2.6,2.6,0,0,1-1.37.37h-9.93l-1.47,2.66h14.7a1.24,1.24,0,0,1,.94.39,1.32,1.32,0,0,1,.36.95,1.3,1.3,0,0,1-1.33,1.33Z" transform="translate(-183.92 -236.81)"/></svg>