<svg id="Layer_1" data-name="Layer 1" xmlns="http://www.w3.org/2000/svg" xmlns:xlink="http://www.w3.org/1999/xlink" viewBox="0 0 45 44"><defs><style>.cls-1{fill:#d9d9d9;}.cls-2{fill:#0bb783;}.cls-3{mask:url(#mask);}.cls-4{fill:#f9fafb;}</style><mask id="mask" x="11" y="10" width="23.97" height="24" maskUnits="userSpaceOnUse"><g transform="translate(-174.79 -228.14)"><g id="mask0_0_1" data-name="mask0 0 1"><rect class="cls-1" x="185.79" y="238.14" width="23.97" height="24"/></g></g></mask></defs><path class="cls-2" d="M174.79,228.14h35a10,10,0,0,1,10,10v24a10,10,0,0,1-10,10h-35Z" transform="translate(-174.79 -228.14)"/><g class="cls-3"><path class="cls-4" d="M204.66,258.44l-5.59-5.6a6.11,6.11,0,0,1-3.8,1.3,6.53,6.53,0,1,1,6.49-6.5,5.94,5.94,0,0,1-.35,2.08,5.83,5.83,0,0,1-.94,1.72l5.61,5.63a.89.89,0,0,1,.28.67,1,1,0,0,1-.3.7,1,1,0,0,1-1.4,0Zm-9.39-6.3a4.47,4.47,0,1,0-3.18-1.31A4.33,4.33,0,0,0,195.27,252.14Z" transform="translate(-174.79 -228.14)"/></g></svg>