<svg id="Layer_1" data-name="Layer 1" xmlns="http://www.w3.org/2000/svg" viewBox="0 0 20 22"><defs><style>.cls-1{fill:#718096;}</style></defs><path class="cls-1" d="M202.66,260.22l1.15-1.15-4.45-4.45-1.15,1.15a3.15,3.15,0,0,0,0,4.45,3.15,3.15,0,0,0,4.45,0Zm2.55-2.55,1.15-1.15a3.15,3.15,0,1,0-4.45-4.45l-1.15,1.15Zm-13.92-10.53h10v-2h-10Zm5-4.75a.72.72,0,0,0,.53-.21.76.76,0,0,0,0-1.07.76.76,0,0,0-1.07,0,.75.75,0,0,0,.54,1.28Zm-.88,16.75h-6.12a2,2,0,0,1-2-2v-14a1.92,1.92,0,0,1,.58-1.41,2,2,0,0,1,1.42-.59h4.2a3,3,0,0,1,1.08-1.45,2.95,2.95,0,0,1,3.43,0,3,3,0,0,1,1.09,1.45h4.2a2,2,0,0,1,2,2v6.13a4.76,4.76,0,0,0-2.09,0,5.27,5.27,0,0,0-1.91.79v-.88h-10v2H200l-2,2h-6.72v2h4.87a5.5,5.5,0,0,0-.79,1.92A4.72,4.72,0,0,0,195.41,259.14Z" transform="translate(-187.29 -239.14)"/></svg>